# File created by Blade
# Date/Time:  Tue Jan 27 17:16:36 2015
#---------------------------------------------------------
:version 1.10
:name HOM
:units
  mass 1.0
  length 1.000000
  angle deg
:documentation
     Acclaim Skeleton File
:root
   axis xyz
   order TX TY TZ RX RY RZ
   position 0.000000 0.000000 0.000000
   orientation 0 0 0
:bonedata
   begin
      id 1
      name Spine_dum
      direction 0.000000 1.000000 0.000000
      length 7.539951
      axis 0.0 0.0 0.0 xyz
   end
   begin
      id 2
      name LeftUpLeg_dum
      direction 1.000000 0.000000 0.000000
      length 3.345476
      axis 0.0 0.0 0.0 xyz
   end
   begin
      id 3
      name RightUpLeg_dum
      direction -1.000000 0.000000 0.000000
      length 3.345476
      axis 0.0 0.0 0.0 xyz
   end
   begin
      id 4
      name Spine
      direction 0.000000 1.000000 0.000000
      length 0.000000
      axis 0.0 0.0 0.0 xyz
      dof rx ry rz
   end
   begin
      id 5
      name Spine_dum1
      direction 0.000000 1.000000 0.000000
      length 15.093809
      axis 0.0 0.0 0.0 xyz
   end
   begin
      id 6
      name Spine_dum2
      direction 0.000000 1.000000 0.000000
      length 9.738928
      axis 0.0 0.0 0.0 xyz
   end
   begin
      id 7
      name Spine_dum3
      direction 0.000000 1.000000 0.000000
      length 9.738928
      axis 0.0 0.0 0.0 xyz
   end
   begin
      id 8
      name Head
      direction 0.000000 1.000000 0.000000
      length 4.527550
      axis 0.0 0.0 0.0 xyz
      dof rx ry rz
   end
   begin
      id 9
      name LeftShoulder
      direction 1.000000 0.000000 0.000000
      length 7.084015
      axis 0.0 0.0 -90.0 xyz
      dof rx ry rz
   end
   begin
      id 10
      name LeftArm
      direction 1.000000 0.000000 0.000000
      length 10.259319
      axis 0.0 0.0 -90.0 xyz
      dof rx ry rz
   end
   begin
      id 11
      name LeftForeArm
      direction 1.000000 0.000000 0.000000
      length 9.896984
      axis 0.0 0.0 -90.0 xyz
      dof ry rz rx
   end
   begin
      id 12
      name LeftHand
      direction 0.000000 0.000000 0.000000
      length 0.000000
      axis 0.0 0.0 -90.0 xyz
      dof rx ry rz
   end
   begin
      id 13
      name LeftHand_dum1
      direction 0.000000 0.000000 0.000000
      length 0.000000
      axis 0.0 0.0 -90.0 xyz
   end
   begin
      id 14
      name LeftHand_dum2
      direction 1.000000 0.000000 0.000000
      length 3.937000
      axis 0.0 0.0 -90.0 xyz
   end
   begin
      id 15
      name LeftHandThumb1
      direction 0.000000 0.000000 1.000000
      length 3.937000
      axis 0.0 0.0 -90.0 xyz
      dof rx rz ry
   end
   begin
      id 16
      name RightShoulder
      direction -1.000000 0.000000 0.000000
      length 7.084015
      axis 0.0 0.0 90.0 xyz
      dof rx ry rz
   end
   begin
      id 17
      name RightArm
      direction -1.000000 0.000000 0.000000
      length 10.259319
      axis 0.0 0.0 90.0 xyz
      dof rx ry rz
   end
   begin
      id 18
      name RightForeArm
      direction -1.000000 0.000000 0.000000
      length 9.896984
      axis 0.0 0.0 90.0 xyz
      dof ry rz rx
   end
   begin
      id 19
      name RightHand
      direction 0.000000 0.000000 0.000000
      length 0.000000
      axis 0.0 0.0 90.0 xyz
      dof rx ry rz
   end
   begin
      id 20
      name RightHand_dum1
      direction 0.000000 0.000000 0.000000
      length 0.000000
      axis 0.0 0.0 90.0 xyz
   end
   begin
      id 21
      name RightHand_dum2
      direction -1.000000 0.000000 0.000000
      length 3.937000
      axis 0.0 0.0 90.0 xyz
   end
   begin
      id 22
      name RightHandThumb1
      direction 0.000000 0.000000 1.000000
      length 3.937000
      axis 0.0 0.0 90.0 xyz
      dof rx rz ry
   end
   begin
      id 23
      name LeftUpLeg
      direction 0.000000 -1.000000 0.000000
      length 19.114733
      axis 0.0 0.0 0.0 xyz
      dof rx ry rz
   end
   begin
      id 24
      name LeftLeg
      direction 0.000000 -1.000000 0.000000
      length 16.045604
      axis 0.0 0.0 0.0 xyz
      dof rx ry rz
   end
   begin
      id 25
      name LeftFoot
      direction 0.000000 -0.258819 0.965926
      length 5.543155
      axis 15.0 0.0 0.0 xyz
      dof rx ry rz
   end
   begin
      id 26
      name LeftToeBase
      direction 0.000000 0.000000 1.000000
      length 2.952750
      axis 0.0 0.0 0.0 xyz
      dof rx ry rz
   end
   begin
      id 27
      name RightUpLeg
      direction 0.000000 -1.000000 0.000000
      length 19.114733
      axis 0.0 0.0 0.0 xyz
      dof rx ry rz
   end
   begin
      id 28
      name RightLeg
      direction 0.000000 -1.000000 0.000000
      length 16.045604
      axis 0.0 0.0 0.0 xyz
      dof rx ry rz
   end
   begin
      id 29
      name RightFoot
      direction 0.000000 -0.258819 0.965926
      length 5.543155
      axis 15.0 0.0 0.0 xyz
      dof rx ry rz
   end
   begin
      id 30
      name RightToeBase
      direction 0.000000 0.000000 1.000000
      length 2.952750
      axis 0.0 0.0 0.0 xyz
      dof rx ry rz
   end
:hierarchy
   begin
      root Spine_dum LeftUpLeg_dum RightUpLeg_dum
      Spine_dum Spine
      LeftUpLeg_dum LeftUpLeg
      RightUpLeg_dum RightUpLeg
      Spine Spine_dum1 Spine_dum2 Spine_dum3
      Spine_dum1 Head
      Spine_dum2 LeftShoulder
      Spine_dum3 RightShoulder
      LeftShoulder LeftArm
      LeftArm LeftForeArm
      LeftForeArm LeftHand
      LeftHand LeftHand_dum1 LeftHand_dum2
      LeftHand_dum1 LeftHandThumb1
      RightShoulder RightArm
      RightArm RightForeArm
      RightForeArm RightHand
      RightHand RightHand_dum1 RightHand_dum2
      RightHand_dum1 RightHandThumb1
      LeftUpLeg LeftLeg
      LeftLeg LeftFoot
      LeftFoot LeftToeBase
      RightUpLeg RightLeg
      RightLeg RightFoot
      RightFoot RightToeBase
   end

# File created by Blade
# Date/Time:  Tue Jan 27 17:16:27 2015
# Frame Rate: 120.000 fps
#------------------------------------------------------
:FULLY-SPECIFIED
:DEGREES
2555
root -3.262697 35.988682 3.764560 32.648077 65.629233 32.686635
Spine 8.423277 -7.441761 -6.560531
Head -6.598555 -4.324343 -0.600031
LeftShoulder 8.224875 -19.923083 8.813806
LeftArm 29.540865 -10.164080 -53.315368
LeftForeArm 6.922500 -0.000000 54.117536
LeftHand -10.057189 -0.000000 50.023226
LeftHandThumb1 -26.253704 0.000000 33.147579
RightShoulder -4.659148 -17.041175 0.101689
RightArm 6.073027 -13.504627 54.996044
RightForeArm -169.458819 -0.000000 29.047028
RightHand 0.433204 -0.000000 3.493646
RightHandThumb1 -24.326973 -0.000000 -32.862282
LeftUpLeg -79.383256 47.437189 -9.791216
LeftLeg 109.589346 -0.000000 -0.000000
LeftFoot -7.366870 6.320991 -31.019783
LeftToeBase 16.938156 -0.000000 -0.000000
RightUpLeg -18.541620 -23.953866 0.615233
RightLeg 34.253484 -0.000000 -0.000000
RightFoot -31.259476 -24.188290 11.997305
RightToeBase 3.523655 -0.000000 -0.000000
2556
root -3.264314 35.987592 3.786857 33.427911 66.038488 33.567998
Spine 8.553585 -7.653463 -6.650990
Head -6.534575 -4.442563 -0.637366
LeftShoulder 8.325618 -19.904429 8.839182
LeftArm 29.894373 -10.134607 -53.599446
LeftForeArm 7.134896 0.000000 54.015814
LeftHand -10.110713 -0.000000 50.087142
LeftHandThumb1 -26.253704 0.000000 33.147579
RightShoulder -4.768274 -17.120630 0.102949
RightArm 5.986396 -13.655697 55.149769
RightForeArm -169.455314 0.000000 29.078154
RightHand 0.493438 0.000000 3.471797
RightHandThumb1 -24.326973 -0.000000 -32.862282
LeftUpLeg -79.292600 47.590914 -9.573229
LeftLeg 109.555072 -0.000000 -0.000000
LeftFoot -7.153094 6.132791 -31.295150
LeftToeBase 17.032448 -0.000000 -0.000000
RightUpLeg -18.451534 -24.025834 0.502297
RightLeg 34.302153 -0.000000 -0.000000
RightFoot -31.452020 -24.466576 12.311502
RightToeBase 3.585126 -0.000000 -0.000000
2557
root -3.267446 35.988644 3.810802 34.145507 66.432060 34.389424
Spine 8.701321 -7.865036 -6.729819
Head -6.475441 -4.560328 -0.662345
LeftShoulder 8.413972 -19.905334 8.891678
LeftArm 30.196274 -10.125459 -53.909410
LeftForeArm 7.375515 -0.000000 53.933424
LeftHand -10.216837 -0.000000 50.369210
LeftHandThumb1 -26.253704 0.000000 33.147579
RightShoulder -4.794620 -17.151450 0.112705
RightArm 5.831207 -13.809269 55.286784
RightForeArm -169.517452 0.000000 29.105731
RightHand 0.531904 -0.000000 3.503805
RightHandThumb1 -24.326973 -0.000000 -32.862282
LeftUpLeg -79.087795 47.738461 -9.215875
LeftLeg 109.438804 -0.000000 -0.000000
LeftFoot -6.827899 5.869256 -31.450778
LeftToeBase 16.928412 -0.000000 -0.000000
RightUpLeg -18.343420 -24.080710 0.411616
RightLeg 34.316575 -0.000000 -0.000000
RightFoot -31.652753 -24.703151 12.654113
RightToeBase 3.743171 -0.000000 -0.000000
2558
root -3.268778 35.991366 3.829243 35.050556 66.839257 35.345367
Spine 8.756194 -8.095400 -6.786789
Head -6.381578 -4.704402 -0.731786
LeftShoulder 8.553309 -19.875063 8.883556
LeftArm 30.459829 -10.120240 -54.165120
LeftForeArm 7.622652 -0.000000 53.881302
LeftHand -10.231301 -0.000000 50.151798
LeftHandThumb1 -26.253704 0.000000 33.147579
RightShoulder -4.871426 -17.197652 0.105515
RightArm 5.675570 -13.939830 55.434473
RightForeArm -169.627766 -0.000000 29.147173
RightHand 0.631510 -0.000000 3.467832
RightHandThumb1 -24.326973 -0.000000 -32.862282
LeftUpLeg -78.910898 47.800002 -8.913209
LeftLeg 109.248491 -0.000000 -0.000000
LeftFoot -6.594328 5.604699 -31.624857
LeftToeBase 17.033835 -0.000000 -0.000000
RightUpLeg -18.289452 -24.176897 0.312222
RightLeg 34.326373 -0.000000 -0.000000
RightFoot -31.810071 -24.955975 12.947418
RightToeBase 3.794524 -0.000000 -0.000000
2559
root -3.273013 35.993666 3.849432 35.802319 67.190020 36.179294
Spine 8.874090 -8.276635 -6.837134
Head -6.333076 -4.797707 -0.791421
LeftShoulder 8.642644 -19.878348 8.896068
LeftArm 30.754024 -10.085859 -54.407588
LeftForeArm 7.814612 0.000000 53.756013
LeftHand -10.217237 -0.000000 50.078194
LeftHandThumb1 -26.253704 0.000000 33.147579
RightShoulder -4.926066 -17.211248 0.069667
RightArm 5.570863 -14.107819 55.592292
RightForeArm -169.685074 0.000000 29.150301
RightHand 0.802700 -0.000000 3.420319
RightHandThumb1 -24.326973 -0.000000 -32.862282
LeftUpLeg -78.619354 47.912140 -8.492402
LeftLeg 108.987289 -0.000000 -0.000000
LeftFoot -6.315387 5.329433 -31.840126
LeftToeBase 16.953217 -0.000000 -0.000000
RightUpLeg -18.186093 -24.181393 0.216626
RightLeg 34.327295 -0.000000 -0.000000
RightFoot -31.880636 -25.295818 13.100358
RightToeBase 3.731792 -0.000000 -0.000000
2560
root -3.279266 35.997297 3.866467 36.650299 67.532524 37.055947
Spine 8.915235 -8.473056 -6.886692
Head -6.252683 -4.893474 -0.864997
LeftShoulder 8.753880 -19.921989 8.881175
LeftArm 30.953200 -9.990736 -54.568080
LeftForeArm 7.998852 0.000000 53.665575
LeftHand -10.259636 -0.000000 50.057642
LeftHandThumb1 -26.253704 0.000000 33.147579
RightShoulder -4.960861 -17.214919 0.057125
RightArm 5.434759 -14.302113 55.708577
RightForeArm -169.778578 0.000000 29.088456
RightHand 0.593013 -0.000000 3.350895
RightHandThumb1 -24.326973 -0.000000 -32.862282
LeftUpLeg -78.335039 47.966145 -8.081206
LeftLeg 108.658082 -0.000000 -0.000000
LeftFoot -6.127649 5.049279 -32.138635
LeftToeBase 17.027061 -0.000000 -0.000000
RightUpLeg -18.156756 -24.251436 0.141521
RightLeg 34.318360 -0.000000 -0.000000
RightFoot -32.072916 -25.467413 13.430913
RightToeBase 3.868733 -0.000000 -0.000000
2561
root -3.284720 36.004454 3.874401 37.597807 67.873313 38.015715
Spine 8.925525 -8.691518 -6.907157
Head -6.149709 -4.988705 -1.002965
LeftShoulder 8.852779 -19.944172 8.819875
LeftArm 31.191616 -9.889730 -54.728114
LeftForeArm 8.178196 0.000000 53.532261
LeftHand -10.221540 -0.000000 50.024224
LeftHandThumb1 -26.253704 0.000000 33.147579
RightShoulder -4.998466 -17.271519 0.009491
RightArm 5.363736 -14.427908 55.813432
RightForeArm -169.833507 -0.000000 29.023968
RightHand 0.618530 -0.000000 3.228457
RightHandThumb1 -24.326973 -0.000000 -32.862282
LeftUpLeg -78.036615 47.950357 -7.682012
LeftLeg 108.265109 -0.000000 -0.000000
LeftFoot -5.888140 4.730281 -32.364359
LeftToeBase 16.759348 -0.000000 -0.000000
RightUpLeg -18.142881 -24.396176 0.043877
RightLeg 34.311877 -0.000000 -0.000000
RightFoot -32.109003 -25.670086 13.581355
RightToeBase 3.779226 -0.000000 -0.000000
2562
root -3.287632 36.010859 3.891983 38.386615 68.145935 38.832273
Spine 8.960902 -8.825378 -6.956625
Head -6.058383 -5.057920 -1.090207
LeftShoulder 8.941203 -19.939164 8.791873
LeftArm 31.426188 -9.795025 -54.847365
LeftForeArm 8.310719 -0.000000 53.425051
LeftHand -10.281784 -0.000000 50.134628
LeftHandThumb1 -26.253704 0.000000 33.147579
RightShoulder -5.051777 -17.290361 0.015730
RightArm 5.281744 -14.573236 55.885908
RightForeArm -169.973231 -0.000000 28.957989
RightHand 0.584592 -0.000000 3.010871
RightHandThumb1 -24.326973 -0.000000 -32.862282
LeftUpLeg -77.618688 48.022731 -7.161057
LeftLeg 107.814916 -0.000000 -0.000000
LeftFoot -5.739684 4.418108 -32.381224
LeftToeBase 16.946640 -0.000000 -0.000000
RightUpLeg -18.091818 -24.496647 -0.038671
RightLeg 34.283959 -0.000000 -0.000000
RightFoot -32.183380 -25.826291 13.722927
RightToeBase 3.840296 -0.000000 -0.000000
2563
root -3.289648 36.018031 3.905580 39.146557 68.391209 39.603648
Spine 8.969384 -8.953764 -6.979338
Head -5.967429 -5.149248 -1.195005
LeftShoulder 9.037822 -19.981265 8.731800
LeftArm 31.568058 -9.656658 -54.883863
LeftForeArm 8.378122 0.000000 53.345855
LeftHand -10.381120 -0.000000 50.233440
LeftHandThumb1 -26.253704 0.000000 33.147579
RightShoulder -5.070425 -17.291940 -0.019243
RightArm 5.163265 -14.706079 55.987515
RightForeArm -170.042867 0.000000 28.927338
RightHand 0.646891 -0.000000 2.951959
RightHandThumb1 -24.326973 -0.000000 -32.862282
LeftUpLeg -77.158006 48.096366 -6.595353
LeftLeg 107.318117 -0.000000 -0.000000
LeftFoot -5.537989 4.023981 -32.512194
LeftToeBase 16.815108 -0.000000 -0.000000
RightUpLeg -18.058510 -24.607927 -0.118216
RightLeg 34.260211 -0.000000 -0.000000
RightFoot -32.262566 -25.898185 13.894439
RightToeBase 3.837345 -0.000000 -0.000000
2564
root -3.289783 36.026500 3.918342 40.091751 68.646602 40.543884
Spine 8.927186 -9.124106 -7.037078
Head -5.836123 -5.251492 -1.298144
LeftShoulder 9.155117 -20.081018 8.676901
LeftArm 31.601947 -9.521713 -54.969885
LeftForeArm 8.541533 -0.000000 53.282728
LeftHand -10.413960 -0.000000 50.162990
LeftHandThumb1 -26.253704 0.000000 33.147579
RightShoulder -5.117847 -17.342101 -0.034436
RightArm 5.087024 -14.832789 56.067562
RightForeArm -170.058846 -0.000000 28.908478
RightHand 0.738725 -0.000000 2.918650
RightHandThumb1 -24.326973 -0.000000 -32.862282
LeftUpLeg -76.647761 48.062535 -6.012914
LeftLeg 106.754006 -0.000000 -0.000000
LeftFoot -5.371766 3.663713 -32.701138
LeftToeBase 16.841987 -0.000000 -0.000000
RightUpLeg -18.050357 -24.838481 -0.222977
RightLeg 34.229556 -0.000000 -0.000000
RightFoot -32.388465 -25.861929 14.081562
RightToeBase 4.039382 -0.000000 -0.000000
2565
root -3.292477 36.035733 3.925263 40.949042 68.810806 41.388933
Spine 8.903510 -9.221446 -7.117144
Head -5.761985 -5.330572 -1.384789
LeftShoulder 9.198906 -20.084673 8.681369
LeftArm 31.776091 -9.384541 -55.055795
LeftForeArm 8.631951 -0.000000 53.192354
LeftHand -10.494267 -0.000000 50.164460
LeftHandThumb1 -26.253704 0.000000 33.147579
RightShoulder -5.171684 -17.348563 -0.065132
RightArm 5.033841 -14.997771 56.128341
RightForeArm -170.237248 -0.000000 28.888034
RightHand 0.815676 -0.000000 2.896214
RightHandThumb1 -24.326973 -0.000000 -32.862282
LeftUpLeg -76.047336 48.053245 -5.370200
LeftLeg 106.150992 -0.000000 -0.000000
LeftFoot -5.188699 3.278368 -32.927669
LeftToeBase 16.827161 -0.000000 -0.000000
RightUpLeg -18.066713 -24.975986 -0.351046
RightLeg 34.234292 -0.000000 -0.000000
RightFoot -32.381398 -25.943514 14.135087
RightToeBase 3.896402 -0.000000 -0.000000
2566
root -3.297016 36.042834 3.934175 41.784997 68.995841 42.177703
Spine 8.836760 -9.352735 -7.152953
Head -5.679357 -5.398218 -1.475497
LeftShoulder 9.195894 -20.094002 8.726821
LeftArm 31.925119 -9.242197 -55.185311
LeftForeArm 8.702772 -0.000000 53.096116
LeftHand -10.495625 0.000000 50.065643
LeftHandThumb1 -26.253704 0.000000 33.147579
RightShoulder -5.182968 -17.374713 -0.113625
RightArm 4.974999 -15.036637 56.208245
RightForeArm -170.479213 -0.000000 28.857783
RightHand 0.849639 -0.000000 2.786482
RightHandThumb1 -24.326973 -0.000000 -32.862282
LeftUpLeg -75.398839 47.979651 -4.597938
LeftLeg 105.500182 -0.000000 -0.000000
LeftFoot -4.919296 2.853084 -33.311961
LeftToeBase 16.778681 -0.000000 -0.000000
RightUpLeg -18.119030 -25.121415 -0.427987
RightLeg 34.231231 -0.000000 -0.000000
RightFoot -32.513284 -25.877195 14.342536
RightToeBase 4.086542 -0.000000 -0.000000
2567
root -3.302768 36.050031 3.937971 42.595968 69.096469 42.906072
Spine 8.724983 -9.388206 -7.214597
Head -5.623087 -5.519053 -1.559362
LeftShoulder 9.254453 -20.089349 8.730001
LeftArm 32.063195 -9.126259 -55.263647
LeftForeArm 8.883114 -0.000000 52.996128
LeftHand -10.507919 -0.000000 50.026767
LeftHandThumb1 -26.253704 0.000000 33.147579
RightShoulder -5.253583 -17.399135 -0.155913
RightArm 4.951374 -15.144811 56.277129
RightForeArm -170.644678 0.000000 28.817265
RightHand 0.866411 -0.000000 2.711235
RightHandThumb1 -24.326973 -0.000000 -32.862282
LeftUpLeg -74.712145 47.915495 -3.807238
LeftLeg 104.814216 -0.000000 -0.000000
LeftFoot -4.635792 2.418170 -33.661559
LeftToeBase 16.922148 -0.000000 -0.000000
RightUpLeg -18.224486 -25.234289 -0.524909
RightLeg 34.243786 -0.000000 -0.000000
RightFoot -32.552396 -25.856444 14.406528
RightToeBase 4.094400 -0.000000 -0.000000
